<?xml version="1.0" standalone="no"?>
<!DOCTYPE svg PUBLIC "-//W3C//DTD SVG 1.0//EN" "http://www.w3.org/TR/2001/REC-SVG-20010904/DTD/svg10.dtd">
<svg xmlns="http://www.w3.org/2000/svg" xmlns:xlink="http://www.w3.org/1999/xlink" id="body_1" width="15" height="12">

<g transform="matrix(0.75 0 0 0.8000001 0 0)">
	<g transform="matrix(0.029296532 0 0 0.029296532 2.4999998 -0)">
		<g>
			<g>
                <path d="M388.419 475.59L168.834 256.005L388.418 36.421C 396.759 28.080002 396.759 14.597002 388.418 6.2560005C 380.077 -2.085001 366.594 -2.084999 358.253 6.2560005L358.253 6.2560005L123.586 240.923C 115.244995 249.264 115.244995 262.747 123.586 271.088L123.586 271.088L358.253 505.755C 362.413 509.915 367.874 512.006 373.336 512.006C 378.797 512.006 384.259 509.91498 388.419 505.75497C 396.76 497.414 396.76 483.931 388.419 475.59z" stroke="none" fill="#2446F5" fill-rule="nonzero" />
			</g>
		</g>
		<g>
		</g>
		<g>
		</g>
		<g>
		</g>
		<g>
		</g>
		<g>
		</g>
		<g>
		</g>
		<g>
		</g>
		<g>
		</g>
		<g>
		</g>
		<g>
		</g>
		<g>
		</g>
		<g>
		</g>
		<g>
		</g>
		<g>
		</g>
		<g>
		</g>
	</g>
</g>
</svg>