<?xml version="1.0" standalone="no"?>
<!DOCTYPE svg PUBLIC "-//W3C//DTD SVG 20010904//EN"
 "http://www.w3.org/TR/2001/REC-SVG-20010904/DTD/svg10.dtd">
<svg version="1.0" xmlns="http://www.w3.org/2000/svg"
 width="512.000000pt" height="512.000000pt" viewBox="0 0 512.000000 512.000000"
 preserveAspectRatio="xMidYMid meet">

<g transform="translate(0.000000,512.000000) scale(0.100000,-0.100000)"
fill="#2446f5" stroke="none">
<path d="M1072 4423 c-27 -11 -37 -59 -61 -318 l-26 -270 -472 -3 -472 -2 -20
-26 c-12 -15 -21 -33 -21 -40 0 -29 25 -64 53 -74 19 -6 190 -10 474 -10 l444
0 -5 -42 c-4 -24 -24 -232 -46 -463 -22 -231 -42 -426 -45 -432 -3 -10 -42
-13 -147 -13 -168 0 -188 -7 -188 -69 0 -67 20 -75 181 -79 106 -3 139 -7 139
-17 0 -7 -27 -291 -60 -630 -33 -339 -60 -636 -60 -660 0 -27 7 -51 19 -66 19
-23 24 -24 204 -27 l184 -3 12 -55 c17 -86 76 -190 151 -264 216 -215 548
-225 778 -24 87 76 161 202 177 302 l7 42 604 0 604 0 6 -27 c38 -175 151
-325 300 -401 68 -35 183 -62 259 -62 76 0 191 27 259 62 146 74 262 229 300
400 l6 28 164 0 c174 0 217 8 234 43 17 34 95 731 108 968 7 135 -2 222 -38
344 -91 315 -341 563 -665 662 -82 25 -105 27 -338 32 l-250 6 3 40 c1 22 22
273 47 559 25 285 45 525 45 533 0 7 -11 25 -25 38 l-24 25 -794 0 c-784 0
-793 0 -815 -20 -32 -30 -30 -82 4 -109 26 -21 33 -21 760 -21 692 0 734 -1
734 -17 0 -35 -181 -2108 -185 -2120 -3 -10 -274 -13 -1306 -13 l-1301 0 5 43
c4 23 14 124 23 224 l17 182 263 3 c241 3 264 5 283 22 14 13 21 31 21 57 0
67 -9 69 -297 69 -187 0 -253 3 -253 12 0 17 79 835 86 890 l6 47 408 3 c385
3 409 4 429 22 27 25 28 79 1 106 -19 19 -33 20 -420 20 l-400 0 0 31 c0 37
28 339 36 387 l5 32 423 0 c413 0 424 0 450 21 34 27 36 79 4 109 -21 20 -32
20 -497 19 -262 0 -482 -3 -489 -6z m3026 -1555 c-10 -117 -20 -219 -23 -225
-3 -10 -43 -13 -155 -13 -82 0 -150 2 -150 5 0 12 30 346 35 393 l6 52 152 0
152 0 -17 -212z m316 171 c243 -81 453 -305 526 -559 24 -83 40 -322 23 -333
-5 -3 -34 5 -64 19 -42 20 -90 62 -219 193 -146 149 -174 172 -240 205 -41 19
-104 43 -140 52 -36 9 -67 18 -68 19 -5 4 28 404 34 424 5 17 59 10 148 -20z
m-117 -577 c92 -29 138 -64 308 -237 137 -139 170 -167 226 -194 37 -17 76
-31 88 -31 12 0 24 -6 27 -13 6 -16 -62 -632 -71 -647 -4 -6 -61 -10 -135 -10
l-128 0 -17 68 c-44 184 -199 348 -379 405 -99 31 -243 31 -342 0 -180 -57
-335 -221 -379 -405 l-17 -68 -601 2 -602 3 -12 54 c-55 250 -295 441 -553
441 -256 0 -498 -193 -553 -441 l-12 -54 -125 0 c-105 0 -125 2 -124 15 0 8
14 153 30 323 l29 307 1341 0 c953 0 1350 3 1373 11 17 6 35 19 40 28 5 9 17
106 26 216 9 110 18 210 21 223 l4 22 239 0 c203 0 248 -3 298 -18z m-2440
-810 c197 -75 311 -290 259 -492 -81 -317 -470 -425 -701 -195 -270 270 -66
731 315 711 41 -2 98 -13 127 -24z m2286 13 c194 -50 319 -209 319 -405 0
-119 -33 -200 -116 -288 -165 -174 -437 -174 -602 0 -83 88 -116 169 -116 288
0 120 44 222 131 303 107 100 248 138 384 102z"/>
<path d="M1600 1509 c-101 -45 -160 -138 -160 -249 1 -156 115 -270 270 -270
155 0 269 114 270 270 0 155 -114 270 -270 270 -44 0 -80 -7 -110 -21z m195
-164 c31 -31 35 -42 35 -85 0 -43 -4 -54 -35 -85 -31 -31 -42 -35 -85 -35 -43
0 -54 4 -85 35 -31 31 -35 42 -35 85 0 43 4 54 35 85 31 31 42 35 85 35 43 0
54 -4 85 -35z"/>
<path d="M3948 1516 c-56 -20 -111 -69 -144 -128 -25 -45 -29 -64 -29 -128 0
-64 4 -83 29 -128 52 -94 135 -143 241 -143 106 0 189 49 241 143 25 45 29 64
29 128 0 64 -4 83 -29 128 -53 94 -132 141 -241 141 -33 0 -77 -6 -97 -13z
m163 -153 c31 -18 59 -67 59 -103 0 -36 -28 -85 -61 -104 -62 -36 -144 -13
-174 50 -19 40 -19 68 0 108 29 62 114 85 176 49z"/>
<path d="M290 3208 c-42 -46 -15 -111 53 -123 19 -4 115 -5 214 -3 208 3 223
9 223 79 0 66 -13 69 -257 69 -205 0 -213 -1 -233 -22z"/>
</g>
</svg>
