<?xml version="1.0" standalone="no"?>
<!DOCTYPE svg PUBLIC "-//W3C//DTD SVG 20010904//EN"
 "http://www.w3.org/TR/2001/REC-SVG-20010904/DTD/svg10.dtd">
<svg version="1.0" xmlns="http://www.w3.org/2000/svg"
 width="512.000000pt" height="512.000000pt" viewBox="0 0 512.000000 512.000000"
 preserveAspectRatio="xMidYMid meet">

<g transform="translate(0.000000,512.000000) scale(0.100000,-0.100000)"
fill="#2446f5" stroke="none">
<path d="M2535 4836 c-22 -7 -53 -20 -70 -29 -16 -8 -564 -550 -1216 -1204
-1071 -1073 -1188 -1193 -1209 -1243 -36 -86 -46 -168 -32 -250 26 -151 -4
-117 855 -976 713 -713 788 -784 847 -813 90 -44 172 -57 259 -44 151 23 110
-12 944 821 736 736 757 758 757 795 0 21 -7 49 -16 62 -18 28 -74 49 -106 40
-13 -4 -356 -339 -763 -745 -407 -406 -754 -745 -771 -754 -49 -24 -107 -30
-166 -16 -53 12 -58 18 -830 788 -458 457 -785 791 -795 812 -25 53 -28 123
-8 178 15 41 164 193 1174 1205 636 637 1168 1165 1183 1173 23 12 150 14 816
14 875 0 846 2 916 -66 74 -72 71 -48 74 -551 l3 -453 -246 0 c-204 0 -251 3
-276 16 l-31 15 44 28 c62 40 115 98 146 161 24 49 27 66 27 155 0 89 -3 106
-27 156 -36 72 -105 141 -176 176 -51 25 -68 28 -157 28 -87 0 -107 -3 -157
-27 -73 -34 -142 -103 -176 -176 -21 -44 -27 -76 -30 -142 -4 -100 17 -171 73
-241 41 -52 133 -116 180 -125 28 -5 39 -14 57 -51 30 -61 106 -127 174 -152
50 -19 77 -21 314 -21 l260 0 0 -249 c0 -151 -4 -261 -11 -278 -5 -15 -82
-100 -170 -189 -147 -149 -159 -163 -159 -197 0 -56 45 -102 99 -102 40 0 46
6 211 170 127 126 178 184 198 225 l27 55 3 283 3 282 134 0 c110 0 144 4 189
20 76 29 139 88 178 168 29 59 33 76 33 147 0 71 -4 88 -33 147 -68 138 -160
187 -369 196 l-133 5 0 201 c0 136 -5 217 -14 251 -44 166 -172 290 -334 324
-80 17 -1643 14 -1697 -3z m1223 -730 c15 -8 38 -25 50 -39 l24 -25 -45 -20
c-64 -29 -132 -95 -163 -159 l-26 -55 -25 23 c-82 77 -70 201 26 266 40 27
116 31 159 9z m1091 -271 c39 -23 71 -77 71 -118 0 -43 -29 -97 -64 -118 -26
-16 -51 -19 -153 -19 l-123 0 0 141 0 141 118 -4 c94 -3 125 -8 151 -23z"/>
<path d="M1943 3628 c-364 -365 -544 -552 -548 -570 -19 -77 46 -142 123 -123
18 4 191 170 522 501 l495 494 563 -563 562 -562 -873 -873 c-479 -479 -877
-872 -882 -872 -13 0 -1115 1102 -1115 1114 0 5 52 62 115 127 109 112 115
119 115 159 0 79 -76 123 -148 86 -43 -23 -320 -309 -327 -339 -4 -15 -4 -39
-1 -54 10 -39 1300 -1329 1339 -1339 15 -3 37 -4 50 0 12 3 460 443 995 978
l972 973 0 45 0 45 -658 657 -657 658 -50 0 -50 0 -542 -542z"/>
<path d="M2192 3260 c-148 -75 -205 -255 -126 -400 124 -229 468 -192 540 58
29 100 5 199 -68 279 -60 65 -107 86 -203 91 -74 3 -85 1 -143 -28z m193 -192
c39 -34 44 -86 11 -125 -31 -37 -70 -46 -112 -27 -57 27 -70 93 -28 143 33 39
89 43 129 9z"/>
<path d="M1183 2842 c-34 -5 -73 -58 -73 -99 0 -25 8 -43 29 -64 77 -76 199 5
158 104 -8 19 -20 38 -26 42 -20 12 -65 21 -88 17z"/>
<path d="M2187 2591 c-373 -105 -534 -154 -549 -168 -11 -11 -22 -38 -25 -60
-4 -34 -1 -45 24 -73 24 -27 36 -33 69 -32 21 0 272 66 558 145 577 161 571
159 571 238 0 34 -6 46 -33 70 -20 18 -43 29 -60 28 -15 0 -265 -67 -555 -148z"/>
<path d="M2170 2263 c-28 -10 -66 -37 -102 -73 -45 -45 -60 -69 -74 -115 -56
-195 80 -379 281 -380 119 0 218 64 269 174 31 69 28 179 -7 247 -68 134 -226
196 -367 147z m163 -203 c51 -40 43 -126 -14 -155 -34 -18 -50 -19 -84 -3 -58
26 -71 103 -26 149 36 35 86 39 124 9z"/>
<path d="M3814 2270 c-54 -21 -72 -105 -34 -153 39 -49 122 -44 156 9 55 83
-29 182 -122 144z"/>
</g>
</svg>
